<svg xmlns="http://www.w3.org/2000/svg" version="1.1" xmlns:xlink="http://www.w3.org/1999/xlink" xmlns:svgjs="http://svgjs.com/svgjs" width="512" height="512" x="0" y="0" viewBox="0 0 24 24" style="enable-background:new 0 0 512 512" xml:space="preserve"><g><path xmlns="http://www.w3.org/2000/svg" d="m21 11h-3a1 1 0 0 0 0 2h1.938a8.013 8.013 0 0 1 -6.938 6.93v-10.072a4 4 0 1 0 -2 0v10.072a8.013 8.013 0 0 1 -6.938-6.93h1.938a1 1 0 0 0 0-2h-3a1 1 0 0 0 -1 1 10 10 0 0 0 20 0 1 1 0 0 0 -1-1zm-11-5a2 2 0 1 1 2 2 2 2 0 0 1 -2-2z" fill="#08546c" data-original="#000000"/></g></svg>