<svg width="29" height="29" viewBox="0 0 29 29" fill="none" xmlns="http://www.w3.org/2000/svg">
<path d="M5.75 21.4444H4.5C3.83696 21.4444 3.20107 21.1518 2.73223 20.6309C2.26339 20.1099 2 19.4034 2 18.6667V4.77778C2 4.04107 2.26339 3.33453 2.73223 2.81359C3.20107 2.29266 3.83696 2 4.5 2H24.5C25.163 2 25.7989 2.29266 26.2678 2.81359C26.7366 3.33453 27 4.04107 27 4.77778V18.6667C27 19.4034 26.7366 20.1099 26.2678 20.6309C25.7989 21.1518 25.163 21.4444 24.5 21.4444H23.25" stroke="#08546C" stroke-width="3" stroke-linecap="round" stroke-linejoin="round"/>
<path d="M14.5 18.6667L20.75 27.0001H8.25L14.5 18.6667Z" stroke="#08546C" stroke-width="3" stroke-linecap="round" stroke-linejoin="round"/>
</svg>
